<?xml version="1.0" encoding="UTF-8" standalone="no"?>
<svg width="20px" height="20px" viewBox="0 0 20 20" version="1.1" xmlns="http://www.w3.org/2000/svg" xmlns:xlink="http://www.w3.org/1999/xlink">
    <!-- Generator: Sketch 39.1 (31720) - http://www.bohemiancoding.com/sketch -->
    <title>logout</title>
    <desc>Created with Sketch.</desc>
    <defs></defs>
    <g id="Page-1" stroke="none" stroke-width="1" fill="none" fill-rule="evenodd">
        <g id="logout" fill="#FFFFFF">
            <g id="Group" transform="translate(0.019729, 0.012626)">
                <path d="M9.9417648,19.8631556 C4.45919626,19.8631556 0.0147653488,15.4185854 0.0147653488,9.93615613 C0.0147653488,7.53331761 0.868869298,5.3302831 2.28953202,3.61290734 L4.07639272,5.39976803 C3.10070007,6.65900854 2.49651521,8.21991392 2.49651521,9.93615613 C2.49651521,14.0480378 5.82988315,17.3814057 9.9417648,17.3814057 C14.0536464,17.3814057 17.3870144,14.0480378 17.3870144,9.93615613 C17.3870144,8.21989404 16.7828295,6.65900854 15.8071369,5.39976803 L17.5939976,3.61290734 C19.0146802,5.33028308 19.8687642,7.5333375 19.8687642,9.93615613 C19.8687642,15.4185855 15.4243134,19.8631556 9.9417648,19.8631556 L9.9417648,19.8631556 Z M10.5621973,11.1770211 L9.32133231,11.1770211 C8.97872025,11.1770211 8.70089982,10.8991808 8.70089982,10.5565886 L8.70089982,0.629589193 C8.70089982,0.286977135 8.97874014,0.00915670376 9.32133231,0.00915670376 L10.5621973,0.00915670376 C10.9049287,0.00915670376 11.1826298,0.286997021 11.1826298,0.629589193 L11.1826298,10.5565886 C11.1826298,10.8992007 10.9049287,11.1770211 10.5621973,11.1770211 L10.5621973,11.1770211 Z" id="Shape"></path>
            </g>
        </g>
    </g>
</svg>