<?xml version="1.0" encoding="iso-8859-1"?>
<!-- Generator: Adobe Illustrator 19.2.0, SVG Export Plug-In . SVG Version: 6.00 Build 0)  -->
<svg version="1.1" id="Layer_1" xmlns="http://www.w3.org/2000/svg" xmlns:xlink="http://www.w3.org/1999/xlink" x="0px" y="0px"
	 viewBox="0 0 114 38" style="enable-background:new 0 0 114 38;" xml:space="preserve">
<g id="XMLID_192_">
	<defs>
		<path id="XMLID_193_" d="M12.155,25.066c0,2.734,2.217,4.951,4.951,4.951c2.734,0,4.951-2.217,4.951-4.951
			c0-2.734-2.217-4.951-4.951-4.951C14.371,20.115,12.155,22.332,12.155,25.066 M0.053,12.964c0,2.734,2.217,4.951,4.951,4.951
			c2.734,0,4.951-2.217,4.951-4.951c0-2.734-2.217-4.951-4.951-4.951C2.269,8.013,0.053,10.23,0.053,12.964 M12.155,12.964v1.65
			c0,3.038-2.463,5.501-5.5,5.501h-1.65c-2.735,0-4.951,2.217-4.951,4.951c0,2.734,2.217,4.951,4.951,4.951
			c2.734,0,4.951-2.217,4.951-4.951v-1.65c0-3.038,2.462-5.5,5.5-5.5h1.651c2.734,0,4.951-2.217,4.951-4.951
			c0-2.734-2.217-4.951-4.951-4.951C14.371,8.013,12.155,10.23,12.155,12.964"/>
	</defs>
	<use xlink:href="#XMLID_193_"  style="overflow:visible;fill:#FFFFFF;"/>
	<clipPath id="XMLID_4_">
		<use xlink:href="#XMLID_193_"  style="overflow:visible;"/>
	</clipPath>
	<rect id="XMLID_197_" x="0.053" y="8.013" style="clip-path:url(#XMLID_4_);fill:#FFFFFF;" width="22.004" height="22.003"/>
</g>
<g id="XMLID_1_">
	<path id="XMLID_60_" style="fill:#FFFFFF;" d="M58.334,10.83c-4.332,0-7.856,3.524-7.856,7.856c0,0.116,0.012,0.229,0.017,0.344
		l0,0c0.182,4.172,3.623,7.512,7.838,7.512c3.793,0,6.966-2.702,7.697-6.282c-0.011-0.077-0.024-0.157-0.037-0.239
		c0.013,0.082,0.026,0.163,0.037,0.239c0.104-0.509,0.159-1.036,0.159-1.575C66.19,14.354,62.666,10.83,58.334,10.83z
		 M58.334,24.452c-0.069,0-0.135-0.008-0.203-0.01c-3.084-0.108-5.562-2.645-5.562-5.755c0-3.076,2.424-5.59,5.461-5.75l0,0
		c0.101-0.005,0.201-0.016,0.304-0.016c0.06,0,0.12,0.003,0.18,0.005c-0.177-0.008-0.339-0.012-0.476-0.012l-0.002,0.006
		l0.002-0.006c0.137,0,0.299,0.004,0.476,0.012h0c0,0,0.001,0,0.001,0c0.127,0.006,0.26,0.014,0.403,0.025
		c0.002,0,0.005,0,0.007,0.001c0.001,0,0.002,0,0.003,0c2.901,0.298,5.171,2.756,5.171,5.734
		C64.1,21.865,61.513,24.452,58.334,24.452z"/>
	<path id="XMLID_62_" style="fill:#FFFFFF;" d="M96.679,11.36c-0.073,0.022-0.144,0.046-0.215,0.07
		C96.548,11.425,96.62,11.402,96.679,11.36z"/>
	<path id="XMLID_63_" style="fill:#FFFFFF;" d="M102.089,13.188c0.414,0,0.753-0.339,0.753-0.753V11.85v-0.753h-0.753h-0.341h-3.159
		c-0.693,0-1.329,0.091-1.91,0.262c-0.059,0.042-0.131,0.065-0.215,0.07c-0.224,0.076-0.44,0.162-0.646,0.264c0,0,0,0,0,0
		c-0.503,0.251-0.954,0.579-1.346,0.987c-1.634,1.699-1.63,4.15-1.622,4.454v0.746l-0.001,3.652l0,3.646v0.753h0.752h0.586
		c0.414,0,0.753-0.339,0.753-0.753v-6.836v-0.156c0-0.364,0-0.718,0-0.83l0.001-0.233l0-0.022l0-0.022c0-0.002,0-0.028,0-0.067
		v-0.018c0.006-0.361,0.088-1.877,1.039-2.867c0.04-0.042,0.084-0.082,0.13-0.12c0.599-0.55,1.411-0.822,2.48-0.822h3.159H102.089z"
		/>
	<g id="XMLID_5_">
		<path id="XMLID_6_" style="fill:#FFFFFF;" d="M70.142,14.226l-2.448-3.097h-0.753h-1.159c-0.414,0-0.542,0.266-0.286,0.591
			l5.789,7.324l1.305-1.72L70.142,14.226z"/>
		<polygon id="XMLID_9_" style="fill:#FFFFFF;" points="84.906,18.527 84.906,18.338 84.906,18.53 		"/>
		<path id="XMLID_10_" style="fill:#FFFFFF;" d="M90.789,23.842h-0.341h-1.905c-1.069,0-1.881-0.272-2.48-0.822
			c-0.009-0.008-0.017-0.016-0.025-0.024c-1.179-1.38-1.133-3.661-1.132-3.717l0-0.75c0,0.339-0.013,0.676-0.013,0.313v-0.156
			v-0.348h0.013h0l0-2.101v0v-0.003l0-2.293l0-0.753h0.753h4.239c0.414,0,0.753-0.339,0.753-0.753V11.85v-0.753h-0.753h-4.24h-0.753
			l0-1.557V8.736c0-0.414-0.339-0.753-0.753-0.753h-0.586c-0.414,0-0.752,0.339-0.752,0.752v0v0.804l0,0.805l0,0.463h-0.001v0.29
			h-0.011H80.91h0h-2.845c-0.61,0-1.057,0.428-1.275,0.689l-1.839,2.424l-1.906,2.513l-0.143,0.188l-0.312,0.411h0l-1.305,1.72
			l-2.604,3.432l-2.149,2.832c-0.25,0.33-0.116,0.599,0.298,0.599h1.119h0.753l0.455-0.599l1.506-1.985l1.506-1.985l0.455-0.6
			l1.305-1.72l0.269-0.355l1.942-2.56l1.49-1.964l0.266-0.351c0.021-0.029,0.056-0.053,0.082-0.081l1.646-2.042l-1.646,2.042
			c0.272-0.29,0.747-0.519,1.125-0.519h1.807h1.481h0.412l0,2.308l0,3.652v0.747c-0.007,0.304-0.011,2.755,1.622,4.454
			c1.011,1.051,2.396,1.584,4.117,1.584h1.905h0.341h0.753V25.18v-0.585C91.542,24.181,91.203,23.842,90.789,23.842z"/>
	</g>
	<path id="XMLID_66_" style="fill:#FFFFFF;" d="M75.604,24.506l4.541,5.484h0.753h1.159c0.414,0,0.543-0.266,0.286-0.59v0
		l-4.754-5.753l-3.193-4.039l-0.22-0.278l-0.247-0.312l-1.305,1.72l0.24,0.303L75.604,24.506z"/>
	<path id="XMLID_69_" style="fill:#FFFFFF;" d="M48.377,17.075c0.001-0.052,0.002-0.17-0.005-0.332
		c-0.003-0.046-0.006-0.091-0.008-0.141c-0.001-0.007-0.001-0.013-0.001-0.021c-0.059-0.854-0.335-2.584-1.576-3.874
		c-0.335-0.349-0.716-0.634-1.135-0.866l0,0c-0.82-0.454-1.798-0.687-2.941-0.687c-1.688,0-3.046,0.522-4.037,1.553l-0.218,0.227
		c-0.164,0.23-0.417,0.261-0.607,0.098c0.055,0.062,0.13,0.152,0.219,0.274c-0.089-0.122-0.164-0.212-0.219-0.274l0,0
		c-0.055-0.063-0.091-0.098-0.091-0.098c0,0,0,0,0,0c0,0,0,0,0,0l-0.218-0.227c-0.393-0.408-0.85-0.728-1.359-0.974
		c-0.015,0-0.028,0.001-0.041,0.001c0.013-0.001,0.027-0.001,0.042-0.001c-0.248-0.12-0.503-0.228-0.778-0.31
		c-0.585-0.176-1.23-0.269-1.94-0.269c-1.688,0-3.046,0.522-4.037,1.553c-1.601,1.665-1.598,4.067-1.591,4.367l-0.001,4.313
		l-0.001,3.575c0,0.406,0.332,0.738,0.738,0.738h1.312v-0.738v-6.703c0-0.406,0-0.841,0.001-0.966l0.001-0.228l0-0.021l0-0.022
		c0-0.01-0.01-0.542,0.151-1.202c0-0.001,0-0.002,0-0.002c0.113-0.461,0.308-0.982,0.651-1.434c0.067-0.088,0.138-0.174,0.216-0.256
		c0.598-0.622,1.435-0.924,2.598-0.924c1.119,0,1.953,0.299,2.55,0.915c1.07,1.103,1.028,2.889,1.028,2.903l0,0.736v0.002l0,3.396
		v0.204l-0.001,0.001l0,3.601c0,0.002,0.001,0.004,0.001,0.007v0.004c0,0.082,0,0.054,0-0.004c0.004,0.403,0.334,0.731,0.737,0.731
		h0.574c0.406,0,0.738-0.332,0.738-0.738v-0.278h0.001v-0.021v-0.041v-0.07V18.26v-0.153c0-0.357,0-0.703,0.001-0.813l0.001-0.229
		l0-0.021l0-0.021c0-0.004-0.002-0.113,0.009-0.288c0,0,0-0.001,0-0.001c0.015-0.231,0.058-0.581,0.157-0.969
		c0.126-0.493,0.352-1.044,0.747-1.507c0.036-0.042,0.067-0.088,0.107-0.129c0.598-0.622,1.435-0.924,2.599-0.924
		c0.203,0,0.387,0.021,0.571,0.041c0.832,0.089,1.49,0.37,1.979,0.874c1.07,1.103,1.029,2.89,1.028,2.903v0.738v0l0,3.601l0,3.601
		c0,0.406,0.332,0.738,0.738,0.738h1.312v-0.738l0,0v-6.709v-0.738l-0.001-0.221L48.377,17.075z M38.13,13.395
		c-0.017-0.024-0.035-0.051-0.051-0.074C38.095,13.344,38.113,13.371,38.13,13.395z M38.195,13.49
		c0.003,0.005,0.007,0.011,0.01,0.015C38.202,13.5,38.198,13.494,38.195,13.49z"/>
	<path id="XMLID_71_" style="fill:#FFFFFF;" d="M103.172,24.516c-0.285-0.277-0.535-0.589-0.746-0.929
		C102.636,23.928,102.886,24.239,103.172,24.516z"/>
	<path id="XMLID_72_" style="fill:#FFFFFF;" d="M103.762,25.002c-0.206-0.145-0.402-0.304-0.582-0.478
		C103.36,24.698,103.555,24.857,103.762,25.002z"/>
	<path id="XMLID_73_" style="fill:#FFFFFF;" d="M101.689,21.073c0,0.085,0.009,0.169,0.013,0.253c0,0.009,0.002,0.017,0.003,0.026
		c-0.007-0.102-0.013-0.204-0.014-0.308C101.69,21.054,101.689,21.064,101.689,21.073z"/>
	<path id="XMLID_76_" style="fill:#FFFFFF;" d="M112.368,25.25c1.275-0.845,1.376-2.238,1.379-2.274l0-0.398v-1.104l-0.001-3.665
		v-0.743c0.004-0.155,0.005-0.865-0.209-1.748c-0.205-0.846-0.608-1.849-1.402-2.675c-1.003-1.043-2.378-1.572-4.087-1.572h-1.9
		h-1.169h-0.747v0.747v0.581c0,0.411,0.336,0.747,0.747,0.747h1.169h1.9c0,0,0.218,0.007,0.566,0.038
		c0.074,0.008,0.152,0.011,0.222,0.022c0.678,0.105,1.229,0.351,1.665,0.748c0.045,0.038,0.089,0.077,0.129,0.119
		c1.083,1.116,1.041,2.926,1.041,2.939v3.397l0,2.649c0,0,0.027,0.307-0.01,0.717c-0.359,0.028-0.619,0.021-0.619,0.021
		l-0.012-0.012c-0.036,0.005-0.069,0.021-0.106,0.021h-2.529c-0.077,0-0.192,0-0.328-0.001c-0.408-0.003-1.004-0.009-1.332-0.017
		c-0.146-0.004-0.239-0.007-0.239-0.011c-0.021,0-0.041-0.004-0.062-0.007c-0.019-0.003-0.039-0.006-0.059-0.007
		c0,0-0.001,0-0.001,0c-1.419-0.09-2.59-1.282-2.606-2.717c0.016-1.476,1.254-2.706,2.727-2.731c0-0.016,0.912-0.03,1.323-0.03
		h-0.108c0.144-0.001,1.095-0.038,1.095-0.879l-0.013-1.196h-1.309h-1.323c-0.02,0.001-0.304,0.036-0.324,0.038
		c-0.002,0.001-0.007,0.004-0.009,0.005c-0.068,0.01-0.134,0.027-0.201,0.04c-0.046,0.009-0.092,0.018-0.138,0.027
		c-0.066,0.015-0.131,0.031-0.196,0.049c-1.786,0.463-3.165,1.928-3.51,3.758c-0.005,0.026-0.011,0.053-0.016,0.079
		c-0.013,0.079-0.023,0.159-0.033,0.239c-0.012,0.097-0.023,0.194-0.029,0.292c-0.001,0.009-0.002,0.017-0.003,0.026
		c0,0.001,0,0.001,0,0.002c-0.004,0.084-0.013,0.166-0.013,0.251c0,0.01,0.001,0.019,0.002,0.029v0
		c0.001,0.104,0.007,0.206,0.014,0.307v0c0.004,0.056,0.011,0.111,0.017,0.167c0.004,0.042,0.007,0.084,0.013,0.125
		c0.005,0.041,0.011,0.082,0.017,0.123c0.006,0.039,0.009,0.078,0.016,0.117c0,0,0,0.001,0,0.001c0,0,0,0,0-0.001
		c0.005,0.026,0.011,0.052,0.016,0.079c0.008,0.044,0.02,0.086,0.03,0.13c0.01,0.044,0.019,0.089,0.031,0.133
		c0.026,0.098,0.055,0.194,0.085,0.29c0.021,0.065,0.041,0.131,0.065,0.196c0.012,0.032,0.025,0.064,0.038,0.096
		c-0.013-0.032-0.026-0.063-0.038-0.095c0.055,0.15,0.118,0.296,0.186,0.439c-0.017-0.036-0.033-0.072-0.049-0.108
		c0.016,0.036,0.032,0.073,0.049,0.108c0.052,0.106,0.109,0.208,0.168,0.31c0.025,0.043,0.051,0.085,0.077,0.127
		c0.211,0.339,0.461,0.652,0.746,0.929c0.003,0.003,0.005,0.005,0.008,0.007c0.181,0.175,0.377,0.333,0.582,0.478
		c0.037,0.026,0.072,0.052,0.109,0.076c0.096,0.064,0.193,0.124,0.294,0.181c0.016,0.009,0.033,0.017,0.049,0.026
		c-0.016-0.009-0.033-0.017-0.049-0.026c0.069,0.039,0.139,0.077,0.211,0.113c0.071,0.036,0.143,0.071,0.217,0.103
		c0.05,0.022,0.102,0.04,0.153,0.06c0.179,0.07,0.36,0.136,0.549,0.185c0.01,0.003,0.02,0.005,0.03,0.007
		c-0.01-0.003-0.02-0.005-0.03-0.007c0.065,0.017,0.13,0.034,0.196,0.049c0.003,0.001,0.005,0.001,0.008,0.002
		c-0.001,0-0.001,0-0.002,0c0.044,0.009,0.088,0.018,0.132,0.026c0.024,0.005,0.047,0.009,0.071,0.014
		c-0.023-0.005-0.047-0.009-0.07-0.014c-0.044-0.008-0.087-0.017-0.13-0.026c0.105,0.025,0.212,0.047,0.32,0.064
		c0.004,0.001,0.008,0.002,0.011,0.002c0.003,0.001,0.007,0.004,0.009,0.005c0.01,0.001,0.086,0.01,0.161,0.019
		c0.076,0.009,0.152,0.018,0.162,0.019h1.9h1.896C111.043,25.881,111.814,25.616,112.368,25.25L112.368,25.25z M111.549,24.431
		L111.549,24.431l0.409,0.409L111.549,24.431z"/>
</g>
</svg>
