<?xml version="1.0" standalone="no"?><!DOCTYPE svg PUBLIC "-//W3C//DTD SVG 1.1//EN" "http://www.w3.org/Graphics/SVG/1.1/DTD/svg11.dtd"><svg width="222.265625" height="200" viewBox="0 0 222.265625 200" version="1.1" xmlns="http://www.w3.org/2000/svg" xmlns:xlink="http://www.w3.org/1999/xlink"><defs><style type="text/css"><![CDATA[
@font-face { font-family: ifont; src: url("//at.alicdn.com/t/font_1442373896_4754455.eot?#iefix") format("embedded-opentype"), url("//at.alicdn.com/t/font_1442373896_4754455.woff") format("woff"), url("//at.alicdn.com/t/font_1442373896_4754455.ttf") format("truetype"), url("//at.alicdn.com/t/font_1442373896_4754455.svg#ifont") format("svg"); }

]]></style></defs><g class="transform-group"><g transform="scale(0.1953125, 0.1953125)"><path d="M122.879909 1004.889429C55.124082 1004.889429 0 942.837988 0 866.567509L0 166.361771C0 85.945003 55.124082 20.519822 122.879909 20.519822L700.861759 20.519822C768.617609 20.519822 823.741668 85.943637 823.741668 166.360633L823.741668 241.286713C823.741668 261.291804 807.510539 277.567716 787.558719 277.567716 767.606898 277.567716 751.375747 261.291804 751.375747 241.286713L751.375747 166.360633C751.375747 132.192711 728.713967 104.395435 700.860462 104.395435L122.879909 104.395435C95.026404 104.395435 72.367218 132.192711 72.367218 166.360633L72.367218 859.047481C72.367218 893.215403 95.027701 921.012679 122.881206 921.012679L700.863078 921.012679C728.716584 921.012679 751.378364 893.214037 751.378364 859.046116L751.378364 784.120036C751.378364 764.114716 767.609515 747.840171 787.561335 747.840171 807.513134 747.840171 823.744284 764.114716 823.744284 784.120036L823.744284 859.046116C823.744284 939.464249 768.620203 1004.888064 700.864375 1004.888064L122.879909 1004.888064 122.879909 1004.889429ZM902.43782 774.505131C892.672523 774.505131 883.52149 770.45669 876.669611 763.10528 862.818486 748.252046 862.821103 724.110905 876.677439 709.290439L1016.015394 559.826489C1016.124939 559.708843 1016.220149 559.60667 1016.100181 559.332238 1015.981488 559.056213 1015.843248 559.056213 1015.682844 559.056213L409.698827 559.056213C389.747007 559.056213 373.514559 541.874176 373.514559 520.754972 373.514559 499.634404 389.747007 482.452366 409.698827 482.452366L1015.68025 482.452366C1015.840654 482.452366 1015.978894 482.452366 1016.097564 482.177707 1016.216235 481.903275 1016.122345 481.801102 1016.0128 481.683456L876.669611 332.245675C862.827611 317.401543 862.828931 293.249934 876.670908 278.407168 883.521468 271.057124 892.672523 267.008683 902.43782 267.008683 912.201796 267.008683 921.352852 271.057124 928.204732 278.408533L1127.589842 492.279125C1134.574751 499.805753 1138.17022 509.904441 1137.743781 520.757476 1138.168923 531.610738 1134.574751 541.70806 1127.601584 549.223083L928.204732 763.10528C921.352852 770.45669 912.201796 774.505131 902.43782 774.505131L902.43782 774.505131Z" fill="#2f9cf5"></path></g></g></svg>