<?xml version="1.0" standalone="no"?><!DOCTYPE svg PUBLIC "-//W3C//DTD SVG 1.1//EN" "http://www.w3.org/Graphics/SVG/1.1/DTD/svg11.dtd"><svg width="200" height="200" viewBox="0 0 200 200" version="1.1" xmlns="http://www.w3.org/2000/svg" xmlns:xlink="http://www.w3.org/1999/xlink"><defs><style type="text/css"><![CDATA[
@font-face { font-family: ifont; src: url("//at.alicdn.com/t/font_1442373896_4754455.eot?#iefix") format("embedded-opentype"), url("//at.alicdn.com/t/font_1442373896_4754455.woff") format("woff"), url("//at.alicdn.com/t/font_1442373896_4754455.ttf") format("truetype"), url("//at.alicdn.com/t/font_1442373896_4754455.svg#ifont") format("svg"); }

]]></style></defs><g class="transform-group"><g transform="scale(0.1953125, 0.1953125)"><path d="M619.020905 121.713428M504.928174 1022.82363c-277.900434 0-503.179748-225.286371-503.179748-503.179748 0-121.795079 43.292821-233.462492 115.303373-320.512835l90.572395 90.572395c-49.455909 63.828383-80.080831 142.947555-80.080831 229.94044 0 208.423057 168.961754 377.384811 377.384811 377.384811s377.384811-168.961754 377.384811-377.384811c0-86.993893-30.624923-166.112057-80.080831-229.94044l90.572395-90.572395c72.011561 87.050342 115.303373 198.718764 115.303373 320.512835C1008.107922 797.53726 782.8276 1022.82363 504.928174 1022.82363zM536.376656 582.540847l-62.896964 0c-17.36632 0-31.448482-14.08317-31.448482-31.448482L442.03121 47.912617c0-17.36632 14.08317-31.448482 31.448482-31.448482l62.896964 0c17.372368 0 31.448482 14.08317 31.448482 31.448482l0 503.179748C567.825139 568.458685 553.749024 582.540847 536.376656 582.540847z" fill="#2D9CF5"></path></g></g></svg>