<?xml version="1.0" encoding="UTF-8" standalone="no"?>
<svg width="20px" height="20px" viewBox="0 0 20 20" version="1.1" xmlns="http://www.w3.org/2000/svg" xmlns:xlink="http://www.w3.org/1999/xlink">
    <!-- Generator: Sketch 3.8.3 (29802) - http://www.bohemiancoding.com/sketch -->
    <title>meet</title>
    <desc>Created with Sketch.</desc>
    <defs></defs>
    <g id="Page-1" stroke="none" stroke-width="1" fill="none" fill-rule="evenodd">
        <g id="meet" fill="#2D9CF5">
            <rect id="Rectangle-path" x="11.111" y="5.056" width="2.593" height="1"></rect>
            <rect id="Rectangle-path" x="5.056" y="11.111" width="1" height="2.593"></rect>
            <rect id="Rectangle-path" transform="translate(11.295803, 11.296100) rotate(-45.000000) translate(-11.295803, -11.296100) " x="10.795808" y="8.9391226" width="0.99999041" height="4.71395479"></rect>
            <path d="M5.741,1 C8.355,1 10.482,3.127 10.482,5.741 C10.482,8.355 8.355,10.482 5.741,10.482 C3.127,10.482 1,8.355 1,5.741 C1,3.127 3.127,1 5.741,1 L5.741,1 Z M5.741,0 C2.571,0 0,2.569 0,5.741 C0,8.913 2.571,11.482 5.741,11.482 C8.912,11.482 11.482,8.913 11.482,5.741 C11.481,2.569 8.911,0 5.741,0 L5.741,0 L5.741,0 Z" id="Shape"></path>
            <path d="M15.741,12.481 C17.538,12.481 19,13.943 19,15.74 C19,17.538 17.538,19 15.741,19 C13.944,19 12.482,17.538 12.482,15.741 C12.481,13.943 13.944,12.481 15.741,12.481 L15.741,12.481 Z M15.741,11.481 C13.389,11.481 11.482,13.388 11.482,15.74 C11.482,18.092 13.388,20 15.741,20 C18.094,20 20,18.094 20,15.741 C20,13.388 18.093,11.481 15.741,11.481 L15.741,11.481 L15.741,11.481 Z" id="Shape"></path>
            <path d="M16.667,3.222 C17.953,3.222 19,4.269 19,5.556 C19,6.843 17.953,7.889 16.667,7.889 C15.381,7.889 14.334,6.842 14.334,5.556 C14.334,4.27 15.38,3.222 16.667,3.222 L16.667,3.222 Z M16.667,2.222 C14.826,2.222 13.334,3.714 13.334,5.555 C13.334,7.397 14.826,8.888 16.667,8.888 C18.508,8.889 20,7.397 20,5.556 C20,3.714 18.508,2.222 16.667,2.222 L16.667,2.222 L16.667,2.222 Z" id="Shape"></path>
            <path d="M5.556,14.333 C6.843,14.333 7.889,15.38 7.889,16.666 C7.889,17.952 6.842,19 5.556,19 C4.27,19 3.223,17.953 3.223,16.667 C3.223,15.381 4.269,14.333 5.556,14.333 L5.556,14.333 Z M5.556,13.333 C3.715,13.333 2.223,14.825 2.223,16.666 C2.223,18.507 3.714,20 5.556,20 C7.398,20 8.889,18.508 8.889,16.667 C8.889,14.826 7.397,13.333 5.556,13.333 L5.556,13.333 L5.556,13.333 Z" id="Shape"></path>
        </g>
    </g>
</svg>