<?xml version="1.0" encoding="utf-8"?>
<!-- Generator: Adobe Illustrator 18.0.0, SVG Export Plug-In . SVG Version: 6.00 Build 0)  -->
<!DOCTYPE svg PUBLIC "-//W3C//DTD SVG 1.1//EN" "http://www.w3.org/Graphics/SVG/1.1/DTD/svg11.dtd">
<svg version="1.1" id="Layer_1" xmlns="http://www.w3.org/2000/svg" xmlns:xlink="http://www.w3.org/1999/xlink" x="0px" y="0px"
	 viewBox="-24 -10.3 114 38" enable-background="new -24 -10.3 114 38" xml:space="preserve">
<g>
	<g>
		<path fill="#FFFFFF" d="M-6.1,14.2c0,2.4,1.9,4.3,4.3,4.3c2.4,0,4.3-1.9,4.3-4.3S0.7,9.9-1.7,9.9C-4.1,9.9-6.1,11.8-6.1,14.2
			 M-16.6,3.6c0,2.4,1.9,4.3,4.3,4.3C-9.9,8-8,6-8,3.6s-1.9-4.3-4.3-4.3C-14.7-0.7-16.6,1.2-16.6,3.6 M-6.1,3.6v1.4
			c0,2.7-2.2,4.8-4.8,4.8h-1.4c-2.4,0-4.3,1.9-4.3,4.3s1.9,4.3,4.3,4.3c2.4,0,4.3-1.9,4.3-4.3v-1.4C-8,10.1-5.8,8-3.2,8h1.4
			C0.7,8,2.6,6,2.6,3.6S0.7-0.7-1.7-0.7C-4.1-0.7-6.1,1.2-6.1,3.6"/>
	</g>
	<g>
		<g>
			<path id="SVGID_1_" fill="#FFFFFF" d="M-6.1,14.2c0,2.4,1.9,4.3,4.3,4.3c2.4,0,4.3-1.9,4.3-4.3S0.7,9.9-1.7,9.9
				C-4.1,9.9-6.1,11.8-6.1,14.2 M-16.6,3.6c0,2.4,1.9,4.3,4.3,4.3C-9.9,8-8,6-8,3.6c0-2.4-1.9-4.3-4.3-4.3
				C-14.7-0.7-16.6,1.2-16.6,3.6 M-6.1,3.6v1.4c0,2.7-2.2,4.8-4.8,4.8h-1.4c-2.4,0-4.3,1.9-4.3,4.3s1.9,4.3,4.3,4.3
				c2.4,0,4.3-1.9,4.3-4.3v-1.4C-8,10.1-5.8,8-3.2,8h1.4C0.7,8,2.6,6,2.6,3.6c0-2.4-1.9-4.3-4.3-4.3C-4.1-0.7-6.1,1.2-6.1,3.6"/>
		</g>
	</g>
	<g>
		<path fill="#FFFFFF" d="M34.3,1.8c-3.8,0-6.9,3.1-6.9,6.9c0,0.1,0,0.2,0,0.3l0,0c0.2,3.6,3.2,6.6,6.9,6.6c3.3,0,6.1-2.4,6.7-5.5
			c0-0.1,0-0.1,0-0.2c0,0.1,0,0.1,0,0.2c0.1-0.4,0.1-0.9,0.1-1.4C41.2,4.8,38.1,1.8,34.3,1.8 M34.3,13.7c-0.1,0-0.1,0-0.2,0
			c-2.7-0.1-4.9-2.3-4.9-5c0-2.7,2.1-4.9,4.8-5l0,0c0.1,0,0.2,0,0.3,0c0.1,0,0.1,0,0.2,0c-0.2,0-0.3,0-0.4,0l0,0l0,0
			c0.1,0,0.3,0,0.4,0c0,0,0,0,0,0c0.1,0,0.2,0,0.4,0c0,0,0,0,0,0h0c2.5,0.3,4.5,2.4,4.5,5C39.4,11.4,37.1,13.7,34.3,13.7"/>
		<path fill="#FFFFFF" d="M67.8,2.2c-0.1,0-0.1,0-0.2,0.1C67.7,2.3,67.8,2.3,67.8,2.2"/>
		<path fill="#FFFFFF" d="M72.6,3.8c0.4,0,0.7-0.3,0.7-0.7V2.6V2h-0.7h-0.3h-2.8c-0.6,0-1.2,0.1-1.7,0.2c-0.1,0-0.1,0.1-0.2,0.1
			c-0.2,0.1-0.4,0.1-0.6,0.2l0,0c-0.4,0.2-0.8,0.5-1.2,0.9c-1.4,1.5-1.4,3.6-1.4,3.9v0.7l0,3.2v3.2V15h0.7h0.5
			c0.4,0,0.7-0.3,0.7-0.7v-6V8.2c0-0.3,0-0.6,0-0.7l0-0.2v0l0,0c0,0,0,0,0-0.1v0c0-0.3,0.1-1.6,0.9-2.5c0,0,0.1-0.1,0.1-0.1
			c0.5-0.5,1.2-0.7,2.2-0.7h2.8L72.6,3.8L72.6,3.8z"/>
		<path fill="#FFFFFF" d="M44.6,4.7L42.5,2h-0.7h-1c-0.4,0-0.5,0.2-0.3,0.5l5.1,6.4l1.1-1.5L44.6,4.7z"/>
		<polygon fill="#FFFFFF" points="57.6,8.5 57.6,8.3 57.6,8.5 		"/>
		<path fill="#FFFFFF" d="M62.7,13.1h-0.3h-1.7c-0.9,0-1.6-0.2-2.2-0.7c0,0,0,0,0,0c-1-1.2-1-3.2-1-3.2V8.5c0,0.3,0,0.6,0,0.3V8.6
			V8.3h0V6.5v0v-2V3.8h0.7h3.7c0.4,0,0.7-0.3,0.7-0.7V2.6V2h-0.7h-3.7h-0.7l0-1.4v-0.7c0-0.4-0.3-0.7-0.7-0.7h-0.5
			c-0.4,0-0.7,0.3-0.7,0.7l0,0v0.7v0.7v0.4h0V2h0h-1.7l0,0h-2.5c-0.5,0-0.9,0.4-1.1,0.6l-1.6,2.1l-1.7,2.2l-0.1,0.2l-0.3,0.4l0,0
			l-1.1,1.5l-2.3,3l-1.9,2.5c-0.2,0.3-0.1,0.5,0.3,0.5h1h0.7l0.4-0.5l1.3-1.7l1.3-1.7l0.4-0.5L48,8.9l0.2-0.3l1.7-2.2l1.3-1.7
			l0.2-0.3c0,0,0,0,0.1-0.1l1.4-1.8l-1.4,1.8c0.2-0.3,0.7-0.5,1-0.5h1.6h1.3h0.4v2V9v0.7c0,0.3,0,2.4,1.4,3.9
			c0.9,0.9,2.1,1.4,3.6,1.4h1.7h0.3h0.7v-0.7v-0.5C63.4,13.4,63.1,13.1,62.7,13.1"/>
		<path fill="#FFFFFF" d="M49.4,13.7l4,4.8H54h1c0.4,0,0.5-0.2,0.3-0.5l0,0l-4.2-5l-2.8-3.5l-0.2-0.2L48,8.9l-1.1,1.5l0.2,0.3
			L49.4,13.7z"/>
		<path fill="#FFFFFF" d="M25.6,7.2c0,0,0-0.1,0-0.3c0,0,0-0.1,0-0.1c0,0,0,0,0,0c-0.1-0.7-0.3-2.3-1.4-3.4c-0.3-0.3-0.6-0.6-1-0.8
			l0,0C22.5,2.2,21.7,2,20.7,2c-1.5,0-2.7,0.5-3.5,1.4l-0.2,0.2c-0.1,0.2-0.4,0.2-0.5,0.1c0,0.1,0.1,0.1,0.2,0.2
			c-0.1-0.1-0.1-0.2-0.2-0.2l0,0c0-0.1-0.1-0.1-0.1-0.1l0,0l0,0l-0.2-0.2C15.8,3,15.4,2.8,15,2.5c0,0,0,0,0,0c0,0,0,0,0,0
			c-0.2-0.1-0.4-0.2-0.7-0.3C13.8,2.1,13.2,2,12.6,2C11.1,2,9.9,2.5,9,3.4C7.6,4.9,7.6,7,7.7,7.2V11v3.1c0,0.4,0.3,0.6,0.6,0.6h1.1
			v-0.6V8.3c0-0.4,0-0.7,0-0.8V7.2v0v0c0,0,0-0.5,0.1-1c0,0,0,0,0,0c0.1-0.4,0.3-0.9,0.6-1.3c0.1-0.1,0.1-0.2,0.2-0.2
			c0.5-0.5,1.3-0.8,2.3-0.8c1,0,1.7,0.3,2.2,0.8c0.9,1,0.9,2.5,0.9,2.5v0.6v0l0,3V11h0l0,3.1c0,0,0,0,0,0v0c0,0.1,0,0,0,0
			c0,0.4,0.3,0.6,0.6,0.6h0.5c0.4,0,0.6-0.3,0.6-0.6v-0.2h0v0v0v-0.1V8.3V8.1c0-0.3,0-0.6,0-0.7V7.2v0v0c0,0,0-0.1,0-0.3
			c0,0,0,0,0,0c0-0.2,0.1-0.5,0.1-0.8c0.1-0.4,0.3-0.9,0.7-1.3c0,0,0.1-0.1,0.1-0.1c0.5-0.5,1.3-0.8,2.3-0.8c0.2,0,0.3,0,0.5,0
			c0.7,0.1,1.3,0.3,1.7,0.8c0.9,1,0.9,2.5,0.9,2.5v0.6v0l0,3.1v3.2c0,0.4,0.3,0.6,0.6,0.6h1.1v-0.6l0,0V8.2V7.6l0-0.2V7.2z M16.7,4
			C16.6,4,16.6,4,16.7,4C16.6,4,16.6,4,16.7,4 M16.7,4.1C16.7,4.1,16.7,4.1,16.7,4.1C16.7,4.1,16.7,4.1,16.7,4.1"/>
		<path fill="#FFFFFF" d="M73.5,13.7c-0.2-0.2-0.5-0.5-0.7-0.8C73.1,13.2,73.3,13.5,73.5,13.7"/>
		<path fill="#FFFFFF" d="M74,14.1c-0.2-0.1-0.4-0.3-0.5-0.4C73.7,13.9,73.9,14,74,14.1"/>
		<path fill="#FFFFFF" d="M72.2,10.7c0,0.1,0,0.1,0,0.2c0,0,0,0,0,0C72.2,10.9,72.2,10.8,72.2,10.7C72.2,10.7,72.2,10.7,72.2,10.7"
			/>
		<path fill="#FFFFFF" d="M81.6,14.4c1.1-0.7,1.2-2,1.2-2V12v-1V7.9V7.2c0-0.1,0-0.8-0.2-1.5c-0.2-0.7-0.5-1.6-1.2-2.3
			C80.5,2.4,79.3,2,77.8,2h-1.7h-1h-0.7v0.7v0.5c0,0.4,0.3,0.7,0.7,0.7h1h1.7c0,0,0.2,0,0.5,0c0.1,0,0.1,0,0.2,0
			c0.6,0.1,1.1,0.3,1.5,0.7c0,0,0.1,0.1,0.1,0.1C81,5.6,81,7.1,81,7.2v3v2.3c0,0,0,0.3,0,0.6c-0.3,0-0.5,0-0.5,0l0,0
			c0,0-0.1,0-0.1,0h-2.2c-0.1,0-0.2,0-0.3,0c-0.4,0-0.9,0-1.2,0c-0.1,0-0.2,0-0.2,0c0,0,0,0-0.1,0c0,0,0,0-0.1,0l0,0
			c-1.2-0.1-2.3-1.1-2.3-2.4c0-1.3,1.1-2.4,2.4-2.4c0,0,0.8,0,1.2,0h-0.1c0.1,0,1,0,1-0.8l0-1h-1.1h-1.2c0,0-0.3,0-0.3,0
			c0,0,0,0,0,0c-0.1,0-0.1,0-0.2,0c0,0-0.1,0-0.1,0c-0.1,0-0.1,0-0.2,0c-1.6,0.4-2.8,1.7-3.1,3.3c0,0,0,0,0,0.1c0,0.1,0,0.1,0,0.2
			c0,0.1,0,0.2,0,0.3c0,0,0,0,0,0v0c0,0.1,0,0.1,0,0.2c0,0,0,0,0,0v0c0,0.1,0,0.2,0,0.3c0,0,0,0.1,0,0.1c0,0,0,0.1,0,0.1
			c0,0,0,0.1,0,0.1c0,0,0,0.1,0,0.1l0,0l0,0c0,0,0,0,0,0.1c0,0,0,0.1,0,0.1c0,0,0,0.1,0,0.1c0,0.1,0,0.2,0.1,0.3
			c0,0.1,0,0.1,0.1,0.2c0,0,0,0.1,0,0.1c0,0,0-0.1,0-0.1c0,0.1,0.1,0.3,0.2,0.4c0,0,0-0.1,0-0.1c0,0,0,0.1,0,0.1
			c0,0.1,0.1,0.2,0.1,0.3c0,0,0,0.1,0.1,0.1c0.2,0.3,0.4,0.6,0.7,0.8c0,0,0,0,0,0c0.2,0.2,0.3,0.3,0.5,0.4c0,0,0.1,0,0.1,0.1
			c0.1,0.1,0.2,0.1,0.3,0.2c0,0,0,0,0,0c0,0,0,0,0,0c0.1,0,0.1,0.1,0.2,0.1c0.1,0,0.1,0.1,0.2,0.1c0,0,0.1,0,0.1,0.1
			c0.2,0.1,0.3,0.1,0.5,0.2c0,0,0,0,0,0c0,0,0,0,0,0c0.1,0,0.1,0,0.2,0c0,0,0,0,0,0c0,0,0,0,0,0c0,0,0.1,0,0.1,0c0,0,0,0,0.1,0
			c0,0,0,0-0.1,0c0,0-0.1,0-0.1,0c0.1,0,0.2,0,0.3,0.1c0,0,0,0,0,0c0,0,0,0,0,0c0,0,0.1,0,0.1,0c0.1,0,0.1,0,0.1,0h1.7h1.7
			C80.4,14.9,81.1,14.7,81.6,14.4L81.6,14.4z M80.9,13.6L80.9,13.6l0.4,0.4L80.9,13.6z"/>
	</g>
</g>
</svg>
