<?xml version="1.0" standalone="no"?><!DOCTYPE svg PUBLIC "-//W3C//DTD SVG 1.1//EN" "http://www.w3.org/Graphics/SVG/1.1/DTD/svg11.dtd"><svg width="200" height="200" viewBox="0 0 200 200" version="1.1" xmlns="http://www.w3.org/2000/svg" xmlns:xlink="http://www.w3.org/1999/xlink"><defs><style type="text/css"><![CDATA[
@font-face { font-family: ifont; src: url("//at.alicdn.com/t/font_1442373896_4754455.eot?#iefix") format("embedded-opentype"), url("//at.alicdn.com/t/font_1442373896_4754455.woff") format("woff"), url("//at.alicdn.com/t/font_1442373896_4754455.ttf") format("truetype"), url("//at.alicdn.com/t/font_1442373896_4754455.svg#ifont") format("svg"); }

]]></style></defs><g class="transform-group"><g transform="scale(0.1953125, 0.1953125)"><path d="M967.111111 882.759111C967.111111 937.201778 922.965333 981.333333 868.522667 981.333333L155.477333 981.333333C101.034667 981.333333 56.888889 937.201778 56.888889 882.759111L56.888889 255.032889C56.888889 200.590222 101.034667 156.444444 155.477333 156.444444l713.059556 0C922.965333 156.444444 967.111111 200.590222 967.111111 255.032889L967.111111 882.759111zM910.222222 255.032889C910.222222 232.007111 891.562667 213.333333 868.522667 213.333333L155.477333 213.333333C132.451556 213.333333 113.777778 232.007111 113.777778 255.032889l0 627.726222C113.777778 905.784889 132.451556 924.444444 155.477333 924.444444l713.059556 0C891.562667 924.444444 910.222222 905.784889 910.222222 882.759111L910.222222 255.032889zM812.145778 881.777778l-89.742222 0c-7.864889 0-14.222222-6.357333-14.222222-14.222222s6.357333-14.222222 14.222222-14.222222l89.742222 0c14.08 0 24.035556-2.417778 24.035556-33.550222 0-7.864889 7.822222-14.222222 15.687111-14.222222s15.687111 6.357333 15.687111 14.222222L867.555556 824.888889c0 0.839111-1.521778 1.635556-1.664 2.446222C863.786667 863.473778 844.771556 881.777778 812.145778 881.777778zM851.555556 773.845333c-3.854222 0-7.409778-1.578667-10.097778-4.138667-2.574222-2.688-4.124444-6.243556-4.124444-10.083556 0-3.726222 1.550222-7.409778 4.124444-10.112 5.262222-5.248 14.791111-5.248 20.195556 0 2.56 2.688 4.124444 6.385778 4.124444 10.112 0 3.697778-1.564444 7.395556-4.124444 10.083556C858.951111 772.252444 855.253333 773.845333 851.555556 773.845333zM267.306667 554.666667l-14.222222 0c-7.864889 0-14.222222-6.357333-14.222222-14.222222s6.357333-14.222222 14.222222-14.222222l14.222222 0c7.864889 0 14.222222 6.357333 14.222222 14.222222S275.171556 554.666667 267.306667 554.666667zM366.862222 554.666667l-14.222222 0c-7.864889 0-14.222222-6.357333-14.222222-14.222222s6.357333-14.222222 14.222222-14.222222l14.222222 0c7.864889 0 14.222222 6.357333 14.222222 14.222222S374.727111 554.666667 366.862222 554.666667zM466.417778 554.666667l-14.222222 0c-7.864889 0-14.222222-6.357333-14.222222-14.222222s6.357333-14.222222 14.222222-14.222222l14.222222 0c7.864889 0 14.222222 6.357333 14.222222 14.222222S474.282667 554.666667 466.417778 554.666667zM551.751111 554.666667l-14.222222 0c-7.864889 0-14.222222-6.357333-14.222222-14.222222s6.357333-14.222222 14.222222-14.222222l14.222222 0c7.864889 0 14.222222 6.357333 14.222222 14.222222S559.616 554.666667 551.751111 554.666667zM651.306667 554.666667l-14.222222 0c-7.864889 0-14.222222-6.357333-14.222222-14.222222s6.357333-14.222222 14.222222-14.222222l14.222222 0c7.864889 0 14.222222 6.357333 14.222222 14.222222S659.171556 554.666667 651.306667 554.666667zM750.862222 554.666667l-14.222222 0c-7.864889 0-14.222222-6.357333-14.222222-14.222222s6.357333-14.222222 14.222222-14.222222l14.222222 0c7.864889 0 14.222222 6.357333 14.222222 14.222222S758.727111 554.666667 750.862222 554.666667zM267.306667 640l-14.222222 0c-7.864889 0-14.222222-6.357333-14.222222-14.222222s6.357333-14.222222 14.222222-14.222222l14.222222 0c7.864889 0 14.222222 6.357333 14.222222 14.222222S275.171556 640 267.306667 640zM366.862222 640l-14.222222 0c-7.864889 0-14.222222-6.357333-14.222222-14.222222s6.357333-14.222222 14.222222-14.222222l14.222222 0c7.864889 0 14.222222 6.357333 14.222222 14.222222S374.727111 640 366.862222 640zM466.417778 640l-14.222222 0c-7.864889 0-14.222222-6.357333-14.222222-14.222222s6.357333-14.222222 14.222222-14.222222l14.222222 0c7.864889 0 14.222222 6.357333 14.222222 14.222222S474.282667 640 466.417778 640zM551.751111 640l-14.222222 0c-7.864889 0-14.222222-6.357333-14.222222-14.222222s6.357333-14.222222 14.222222-14.222222l14.222222 0c7.864889 0 14.222222 6.357333 14.222222 14.222222S559.616 640 551.751111 640zM651.306667 640l-14.222222 0c-7.864889 0-14.222222-6.357333-14.222222-14.222222s6.357333-14.222222 14.222222-14.222222l14.222222 0c7.864889 0 14.222222 6.357333 14.222222 14.222222S659.171556 640 651.306667 640zM750.862222 640l-14.222222 0c-7.864889 0-14.222222-6.357333-14.222222-14.222222s6.357333-14.222222 14.222222-14.222222l14.222222 0c7.864889 0 14.222222 6.357333 14.222222 14.222222S758.727111 640 750.862222 640zM267.306667 810.666667l-14.222222 0c-7.864889 0-14.222222-6.357333-14.222222-14.222222s6.357333-14.222222 14.222222-14.222222l14.222222 0c7.864889 0 14.222222 6.357333 14.222222 14.222222S275.171556 810.666667 267.306667 810.666667zM366.862222 810.666667l-14.222222 0c-7.864889 0-14.222222-6.357333-14.222222-14.222222s6.357333-14.222222 14.222222-14.222222l14.222222 0c7.864889 0 14.222222 6.357333 14.222222 14.222222S374.727111 810.666667 366.862222 810.666667zM466.417778 810.666667l-14.222222 0c-7.864889 0-14.222222-6.357333-14.222222-14.222222s6.357333-14.222222 14.222222-14.222222l14.222222 0c7.864889 0 14.222222 6.357333 14.222222 14.222222S474.282667 810.666667 466.417778 810.666667zM551.751111 810.666667l-14.222222 0c-7.864889 0-14.222222-6.357333-14.222222-14.222222s6.357333-14.222222 14.222222-14.222222l14.222222 0c7.864889 0 14.222222 6.357333 14.222222 14.222222S559.616 810.666667 551.751111 810.666667zM267.306667 725.333333l-14.222222 0c-7.864889 0-14.222222-6.357333-14.222222-14.222222s6.357333-14.222222 14.222222-14.222222l14.222222 0c7.864889 0 14.222222 6.357333 14.222222 14.222222S275.171556 725.333333 267.306667 725.333333zM366.862222 725.333333l-14.222222 0c-7.864889 0-14.222222-6.357333-14.222222-14.222222s6.357333-14.222222 14.222222-14.222222l14.222222 0c7.864889 0 14.222222 6.357333 14.222222 14.222222S374.727111 725.333333 366.862222 725.333333zM466.417778 725.333333l-14.222222 0c-7.864889 0-14.222222-6.357333-14.222222-14.222222s6.357333-14.222222 14.222222-14.222222l14.222222 0c7.864889 0 14.222222 6.357333 14.222222 14.222222S474.282667 725.333333 466.417778 725.333333zM551.751111 725.333333l-14.222222 0c-7.864889 0-14.222222-6.357333-14.222222-14.222222s6.357333-14.222222 14.222222-14.222222l14.222222 0c7.864889 0 14.222222 6.357333 14.222222 14.222222S559.616 725.333333 551.751111 725.333333zM651.306667 725.333333l-14.222222 0c-7.864889 0-14.222222-6.357333-14.222222-14.222222s6.357333-14.222222 14.222222-14.222222l14.222222 0c7.864889 0 14.222222 6.357333 14.222222 14.222222S659.171556 725.333333 651.306667 725.333333zM750.862222 725.333333l-14.222222 0c-7.864889 0-14.222222-6.357333-14.222222-14.222222s6.357333-14.222222 14.222222-14.222222l14.222222 0c7.864889 0 14.222222 6.357333 14.222222 14.222222S758.727111 725.333333 750.862222 725.333333zM256 312.888889c-15.701333 0-28.444444-12.743111-28.444444-28.444444L227.555556 71.111111c0-15.701333 12.743111-28.444444 28.444444-28.444444s28.444444 12.743111 28.444444 28.444444l0 213.333333C284.444444 300.16 271.701333 312.888889 256 312.888889zM753.777778 312.888889c-15.701333 0-28.444444-12.743111-28.444444-28.444444L725.333333 71.111111c0-15.701333 12.743111-28.444444 28.444444-28.444444s28.444444 12.743111 28.444444 28.444444l0 213.333333C782.222222 300.16 769.479111 312.888889 753.777778 312.888889zM935.751111 426.666667l-853.333333 0c-7.864889 0-14.222222-6.357333-14.222222-14.222222s6.357333-14.222222 14.222222-14.222222l853.333333 0c7.864889 0 14.222222 6.357333 14.222222 14.222222S943.616 426.666667 935.751111 426.666667z" fill="#2d9cf5"></path></g></g></svg>