<?xml version="1.0" encoding="UTF-8" standalone="no"?>
<svg width="179px" height="141px" viewBox="0 0 179 141" version="1.1" xmlns="http://www.w3.org/2000/svg" xmlns:xlink="http://www.w3.org/1999/xlink">
    <!-- Generator: Sketch 3.8.3 (29802) - http://www.bohemiancoding.com/sketch -->
    <title>copytobinder</title>
    <desc>Created with Sketch.</desc>
    <defs></defs>
    <g id="Page-1" stroke="none" stroke-width="1" fill="none" fill-rule="evenodd">
        <g id="copytobinder" transform="translate(-1.000000, 0.000000)" fill="#2D9CF5">
            <g id="email">
                <g id="Group" transform="translate(0.914062, 0.734375)">
                    <path d="M178.688009,57.7254014 L178.688009,17.4951594 C178.688009,13.8344414 177.542786,10.4467383 175.611096,7.64783594 C175.531549,7.51972285 175.511963,7.37382168 175.423023,7.25130488 C175.271526,7.05463828 175.064666,6.9453123 174.890584,6.77582734 C171.70994,2.75755176 166.847637,0.132731445 161.325581,0.132731445 L17.5450643,0.132731055 C7.95236816,0.132731055 0.182236328,7.90246309 0.182236328,17.4951594 L0.182236328,122.680044 C0.182236328,132.274339 7.95236816,140.037875 17.5450643,140.037875 L128.325781,140.037875 C130.097413,140.037882 132.100342,137.982691 132.100342,135.298228 C132.100342,132.972804 130.104127,130.907267 127.411601,130.907266 L18.4592443,130.907266 C13.4172629,130.907266 9.31744238,126.817039 9.31744238,121.766663 L9.31744258,18.4093396 C9.31744258,17.9096785 9.38879414,17.4334014 9.46374336,16.9525273 L89.3455834,82.11075 C90.0762881,82.6525826 90.8859391,82.8782295 91.7057832,82.9679688 C91.9416232,83.0101402 92.1726666,82.996949 92.4131037,83.0015459 C92.6489437,82.996949 92.8791877,83.0109395 93.1150277,82.9679688 C93.9394687,82.8790291 94.7499193,82.6525826 95.4572396,82.1201436 C95.4612369,82.1155467 169.485648,17.7457895 169.485648,17.7457895 C169.500438,17.9666396 169.552803,18.1836926 169.552803,18.4093396 L169.552803,57.726001 C169.552803,60.2454926 171.597617,62.2965021 174.123104,62.2965021 C176.643196,62.2965021 178.688009,60.2454928 178.688009,57.7254014 Z M18.4592443,9.2679375 L160.410601,9.2679375 C161.612986,9.2679375 162.75821,9.5137709 163.813694,9.93848281 L92.4129039,72.3345783 L15.8574084,9.69344902 C16.6872459,9.44281895 17.5488617,9.2679375 18.4592443,9.2679375 L18.4592443,9.2679375 L18.4592443,9.2679375 L18.4592443,9.2679375 Z" id="Shape"></path>
                </g>
            </g>
            <path d="M156.06647,69.1941107 C155.983877,69.1614169 155.90398,69.133889 155.822026,69.1100409 C155.734324,69.0847775 155.65393,69.0654585 155.571976,69.0497485 C155.478526,69.0325523 155.39792,69.0208052 155.316179,69.0129502 C155.218401,69.0042459 155.136446,69 155.053499,69 C154.969912,69 154.88739,69.0043167 154.805861,69.0116764 C154.708154,69.0207344 154.626484,69.0325523 154.545878,69.0476962 C154.452357,69.0653877 154.370119,69.0849898 154.289513,69.1084133 C154.20252,69.1336059 154.121275,69.1614877 154.041521,69.1930493 C153.958431,69.2258847 153.879528,69.2616922 153.802469,69.3011088 C153.72165,69.3428607 153.645656,69.3864524 153.572216,69.4335117 C153.494448,69.4834724 153.422002,69.53499 153.35211,69.5900458 C153.279522,69.6474369 153.211404,69.7068803 153.146195,69.7696495 C153.127108,69.7879071 131.099525,91.0128546 131.099525,91.0128546 C130.012759,92.0651431 131.203673,95.0168629 132.256664,96.1044635 C133.309867,97.1915688 136.264682,98.442148 137.355066,97.3917703 L151.086493,83.0718825 L151.086493,138.258557 C151.086493,139.770399 153.53539,140.995073 155.053286,140.995073 C156.567492,140.995073 159.016673,139.770187 159.016673,138.258557 L159.016673,83.0686981 L172.752002,97.3914164 C173.834581,98.4415111 176.800678,97.1912149 177.85005,96.1039681 C178.902898,95.0164383 180.093883,92.0646476 179.003925,91.0125715 L157.003518,69.8135243 C156.739703,69.5472324 156.421322,69.3349348 156.06647,69.1941107 Z" id="Shape"></path>
        </g>
    </g>
</svg>