<?xml version="1.0" encoding="UTF-8" standalone="no"?>
<svg width="42px" height="45px" viewBox="0 0 42 45" version="1.1" xmlns="http://www.w3.org/2000/svg" xmlns:xlink="http://www.w3.org/1999/xlink">
    <!-- Generator: Sketch 39 (31667) - http://www.bohemiancoding.com/sketch -->
    <title>Group 2</title>
    <desc>Created with Sketch.</desc>
    <defs></defs>
    <g id="Page-1" stroke="none" stroke-width="1" fill="none" fill-rule="evenodd">
        <g id="Web---Step-1" transform="translate(-1090.000000, -44.000000)">
            <g id="Group-2" transform="translate(1091.000000, 44.000000)">
                <g id="Group" transform="translate(0.000000, 4.000000)">
                    <text id="LiveChat" font-family="HelveticaNeue, Helvetica Neue" font-size="6" font-weight="normal" fill="#666666">
                        <tspan x="8" y="34">LiveChat</tspan>
                    </text>
                    <g id="1469157557_support" transform="translate(10.000000, 4.000000)">
                        <g id="Layer_1">
                            <g id="Hair" transform="translate(4.285714, 0.000000)" fill="#A67C52">
                                <path d="M5.71428571,0 C1.75357143,0 0,2.17741935 0,5.80645161 L0,15.9677419 L11.4285714,15.9677419 L11.4285714,5.80645161 C11.4285714,2.17741935 9.09178571,0 5.71428571,0 L5.71428571,0 Z" id="Shape"></path>
                            </g>
                            <g id="Neck" transform="translate(7.857143, 10.887097)" fill="#DBB59A">
                                <polygon id="Shape" points="3.57142857 0.000362903226 0.714285714 0.000362903226 0 2.90358871 0 12.3387097 4.28571429 12.3387097 4.28571429 2.90358871"></polygon>
                            </g>
                            <g id="Suit" transform="translate(0.000000, 14.516129)" fill="#48A0DC">
                                <path d="M18.5714286,2.90322581 C17.8996429,2.22096774 12.8571429,0 12.8571429,0 L10,8.70967742 L20,8.70967742 C20,8.70967742 19.9142857,4.26774194 18.5714286,2.90322581 L18.5714286,2.90322581 Z M1.42857143,2.90322581 C0.0853571429,4.26774194 0,8.70967742 0,8.70967742 L10,8.70967742 L7.14285714,0 C7.14285714,0 2.1,2.22096774 1.42857143,2.90322581 L1.42857143,2.90322581 Z" id="Shape"></path>
                            </g>
                            <g id="Collar" transform="translate(3.571429, 13.790323)" fill="#FFFFFF">
                                <path d="M8.57142857,0.000362903226 L6.42857143,9.43548387 L7.14285714,9.43548387 L9.28571429,4.35483871 L12.8571429,3.62903226 L8.57142857,0.000362903226 L8.57142857,0.000362903226 Z M0,3.62903226 L3.57142857,4.35483871 L5.71428571,9.43548387 L6.42857143,9.43548387 L4.28571429,0.000362903226 L0,3.62903226 L0,3.62903226 Z" id="Shape"></path>
                            </g>
                            <g id="Head_3_" transform="translate(5.714286, 3.991935)" fill="#F6CBAD">
                                <path d="M6.25107143,0.350201613 C5.69214286,1.60693548 3.76357143,2.54032258 1.42857143,2.54032258 C1.43178571,2.54032258 0.7225,2.54032258 0.0103571429,2.54032258 C0.0417857143,3.96181452 0.171428571,5.06649194 0.714285714,6.16935484 C1.42857143,7.62096774 2.88607143,9.07258065 4.28571429,9.07258065 C5.685,9.07258065 7.14285714,7.62096774 7.85714286,6.16935484 C8.49,4.88322581 8.56214286,3.59455645 8.57,1.80326613 C8.55607143,0.975846774 7.01964286,0.350201613 6.25107143,0.350201613 L6.25107143,0.350201613 Z" id="Shape"></path>
                            </g>
                            <g id="Headphones" transform="translate(2.857143, 0.725806)" fill="#4D4D4D">
                                <path d="M13.4246429,4.00681452 C12.8003571,1.71689516 10.2267857,0.000362903226 7.14285714,0.000362903226 C4.05892857,0.000362903226 1.48535714,1.71689516 0.861071429,4.00681452 C0.383928571,4.27245968 0,4.65459677 0,5.08100806 L0,6.53262097 C0,7.33427419 1.35392857,7.98423387 2.14285714,7.98423387 L2.14285714,5.08100806 C2.14285714,3.07669355 4.38142857,1.45197581 7.14285714,1.45197581 C9.90392857,1.45197581 12.1428571,3.07669355 12.1428571,5.08100806 L12.1428571,6.53262097 C12.1428571,8.0883871 11.1775,9.41189516 9.82357143,9.92758065 C9.63178571,9.63181452 9.30321429,9.43584677 8.92857143,9.43584677 L7.5,9.43584677 C6.90821429,9.43584677 6.42857143,9.92322581 6.42857143,10.5245565 C6.42857143,11.1255242 6.90821429,11.6132661 7.5,11.6132661 L8.92857143,11.6132661 C9.03392857,11.6132661 9.13357143,11.5929435 9.22964286,11.5642742 C11.3357143,11.2819355 13.0296429,9.67209677 13.4628571,7.58576613 C13.9217857,7.32084677 14.2857143,6.94778226 14.2857143,6.53262097 L14.2857143,5.08100806 C14.2857143,4.65459677 13.9017857,4.27245968 13.4246429,4.00681452 L13.4246429,4.00681452 Z" id="Shape"></path>
                            </g>
                        </g>
                    </g>
                    <circle id="Oval" stroke="#979797" cx="20" cy="20" r="20"></circle>
                </g>
                <circle id="Oval-2" fill="#D0011B" cx="31" cy="5" r="5"></circle>
                <text id="2" font-family="HelveticaNeue, Helvetica Neue" font-size="8" font-weight="normal" fill="#FFFFFF">
                    <tspan x="29" y="8">2</tspan>
                </text>
            </g>
        </g>
    </g>
</svg>